<?xml version="1.0" encoding="UTF-8" standalone="no"?>
<!-- Created with Inkscape (http://www.inkscape.org/) -->

<svg
   width="880.22406mm"
   height="1024.3735mm"
   viewBox="0 0 880.22406 1024.3735"
   version="1.1"
   id="svg1"
   inkscape:version="1.3 (0e150ed6c4, 2023-07-21)"
   sodipodi:docname="pendulum-icon-joined.svg"
   xmlns:inkscape="http://www.inkscape.org/namespaces/inkscape"
   xmlns:sodipodi="http://sodipodi.sourceforge.net/DTD/sodipodi-0.dtd"
   xmlns="http://www.w3.org/2000/svg"
   xmlns:svg="http://www.w3.org/2000/svg">
  <sodipodi:namedview
     id="namedview1"
     pagecolor="#ffffff"
     bordercolor="#000000"
     borderopacity="0.25"
     inkscape:showpageshadow="2"
     inkscape:pageopacity="0.0"
     inkscape:pagecheckerboard="0"
     inkscape:deskcolor="#d1d1d1"
     inkscape:document-units="mm"
     inkscape:zoom="0.10289352"
     inkscape:cx="1273.1608"
     inkscape:cy="1822.2722"
     inkscape:window-width="1504"
     inkscape:window-height="931"
     inkscape:window-x="0"
     inkscape:window-y="0"
     inkscape:window-maximized="1"
     inkscape:current-layer="layer1" />
  <defs
     id="defs1" />
  <g
     inkscape:label="Ebene 1"
     inkscape:groupmode="layer"
     id="layer1"
     transform="translate(-16.754768,-11.280964)">
    <g
       id="path2"
       inkscape:label="path2"
       transform="matrix(1.0154613,0,0,0.99554491,-4.205876,0.18301527)" />
    <g
       id="path3">
      <path
         id="path10"
         style="color:#000000;fill:#000000;-inkscape-stroke:none"
         d="m 614.25391,11.28125 c 0,0 -143.39209,4.2e-5 -289.18164,0.263672 -72.89478,0.131815 -146.38435,0.329941 -202.91602,0.626953 -28.265833,0.148506 -52.280011,0.321538 -69.957031,0.525391 -8.83851,0.101926 -16.076299,0.209841 -21.607422,0.332031 -5.531124,0.122189 -6.345003,-0.191916 -13.837891,0.640625 l 10.140625,91.265628 c -5.121067,0.569 0.770933,0.008 5.72461,-0.10157 4.953676,-0.10943 11.980898,-0.21656 20.638671,-0.3164 17.315548,-0.19969 41.217165,-0.37156 69.380858,-0.51953 56.32739,-0.29594 129.75929,-0.49524 202.59961,-0.62696 145.68065,-0.26343 289.01563,-0.26171 289.01563,-0.26171 z M 21.825089,59.303032 C 40.799666,57.19475 614.25337,57.194763 614.25337,57.194763 M 352.38963,41.080078 272.02538,78.061071 529.43094,615.6981 609.79518,578.71711 Z M 312.20827,59.570291 569.61333,597.20835 m 95.23823,438.44595 c -127.65601,0 -232.125,-104.47094 -232.125,-232.12696 0,-127.65601 104.46899,-232.125 232.125,-232.125 127.65601,0 232.12696,104.46899 232.12696,232.125 0,127.65602 -104.47095,232.12696 -232.12696,232.12696 z m 0,-91.82813 c 78.02875,0 140.29883,-62.27008 140.29883,-140.29883 0,-78.02874 -62.27008,-140.29882 -140.29883,-140.29882 -78.02874,0 -140.29883,62.27008 -140.29883,140.29882 0,78.02875 62.27009,140.29883 140.29883,140.29883 z" />
    </g>
  </g>
</svg>
