<?xml version="1.0" encoding="UTF-8" standalone="no"?>
<!-- Created with Inkscape (http://www.inkscape.org/) -->

<svg
   width="892.81226"
   height="1023.8253"
   viewBox="0 0 892.81226 1023.8253"
   version="1.1"
   id="svg1"
   inkscape:version="1.3 (0e150ed6c4, 2023-07-21)"
   sodipodi:docname="pendulum-icon-joined.svg"
   xmlns:inkscape="http://www.inkscape.org/namespaces/inkscape"
   xmlns:sodipodi="http://sodipodi.sourceforge.net/DTD/sodipodi-0.dtd"
   xmlns="http://www.w3.org/2000/svg"
   xmlns:svg="http://www.w3.org/2000/svg">
  <sodipodi:namedview
     id="namedview1"
     pagecolor="#ffffff"
     bordercolor="#000000"
     borderopacity="0.25"
     inkscape:showpageshadow="2"
     inkscape:pageopacity="0.0"
     inkscape:pagecheckerboard="0"
     inkscape:deskcolor="#d1d1d1"
     inkscape:document-units="px"
     inkscape:zoom="0.58205364"
     inkscape:cx="376.25398"
     inkscape:cy="536.03307"
     inkscape:window-width="1920"
     inkscape:window-height="1128"
     inkscape:window-x="0"
     inkscape:window-y="0"
     inkscape:window-maximized="1"
     inkscape:current-layer="layer1" />
  <defs
     id="defs1" />
  <g
     inkscape:label="Ebene 1"
     inkscape:groupmode="layer"
     id="layer1"
     transform="translate(-16.927864,-12.853276)">
    <path
       id="path1"
       style="color:#000000;fill:#000000;stroke-width:13.6612;-inkscape-stroke:none"
       d="m 636.67295,12.853287 c -0.13245,0 -149.27108,-0.006 -301.00212,0.268298 -75.89919,0.137168 -152.42205,0.333467 -211.24581,0.64249 -29.411875,0.154639 -54.383149,0.346297 -72.707298,0.557652 -9.162065,0.105207 -16.65522,0.221582 -22.280238,0.345883 -3.898004,0.08607 -6.087099,0.222676 -8.669238,0.374183 h -1.016533 v 0.02868 c -0.882928,0.06558 -1.726853,0.01245 -2.823849,0.133885 L 19.942329,67.714006 305.30735,66.704439 561.88313,637.64625 c -55.84857,40.01689 -92.66505,105.07212 -92.66494,178.77143 -2.3e-4,121.33428 98.92666,220.26122 220.26095,220.26092 121.33432,3e-4 220.26121,-98.92664 220.26099,-220.26092 2.2e-4,-121.33432 -98.92667,-220.26121 -220.26099,-220.26099 -28.75648,-3e-5 -56.08539,5.90955 -81.30592,16.00424 L 362.97053,66.48563 636.80713,65.525515 h 0.0777 l -0.0777,-52.672024 h -0.10641 z M 689.4791,648.82855 c 92.86512,-1.5e-4 167.58913,74.72382 167.58895,167.58894 1.8e-4,92.86512 -74.72383,167.58913 -167.58895,167.58894 -92.86512,1.9e-4 -167.56796,-74.72382 -167.56777,-167.58894 -1.9e-4,-92.86512 74.70265,-167.58909 167.56777,-167.58894 z" />
  </g>
</svg>
